<?xml version="1.0" encoding="utf-8"?>
<!-- Generator: Adobe Illustrator 25.1.0, SVG Export Plug-In . SVG Version: 6.00 Build 0)  -->
<svg version="1.1" id="Layer_1" xmlns="http://www.w3.org/2000/svg" xmlns:xlink="http://www.w3.org/1999/xlink" x="0px" y="0px"
	 viewBox="0 0 352 48" style="enable-background:new 0 0 352 48;" xml:space="preserve">
<style type="text/css">
	.st0{fill:#61DAFB;}
	.st1{fill:#FFFFFF;}
</style>
<g>
	<path class="st0" d="M50.41,23.01c0-3.27-4.1-6.37-10.38-8.3c1.45-6.41,0.81-11.5-2.03-13.13c-0.65-0.38-1.41-0.56-2.25-0.56V1
		c-2.77,0-6.4,1.97-10.06,5.4c-3.67-3.4-7.29-5.36-10.06-5.36v0.01c-0.85,0-1.61,0.18-2.28,0.56c-2.83,1.63-3.46,6.72-2,13.1
		C5.08,16.65,1,19.74,1,23.01c0,3.27,4.1,6.37,10.38,8.3c-1.45,6.41-0.81,11.5,2.03,13.13c0.65,0.38,1.42,0.56,2.27,0.56
		c2.77,0,6.4-1.97,10.06-5.4c3.67,3.4,7.29,5.36,10.06,5.36c0.85,0,1.61-0.18,2.28-0.56c2.83-1.63,3.46-6.72,2-13.1
		C46.33,29.37,50.41,26.27,50.41,23.01z M35.73,3.25L35.73,3.25c0.46,0.01,0.84,0.1,1.15,0.27c1.37,0.79,1.96,3.78,1.5,7.62
		c-0.11,0.95-0.29,1.94-0.51,2.96c-1.97-0.48-4.13-0.86-6.4-1.1c-1.36-1.86-2.77-3.56-4.19-5.04C30.56,4.92,33.64,3.25,35.73,3.25z
		 M16.78,28.16c0.47,0.81,0.96,1.59,1.45,2.36c-1.43-0.21-2.81-0.47-4.13-0.8c0.37-1.3,0.84-2.64,1.36-3.98
		C15.87,26.55,16.31,27.36,16.78,28.16z M14.07,16.29c1.32-0.31,2.71-0.58,4.15-0.8c-0.49,0.78-0.99,1.57-1.45,2.39
		c-0.46,0.81-0.9,1.61-1.31,2.42C14.92,18.95,14.45,17.6,14.07,16.29z M16.64,23.04c0.62-1.35,1.33-2.7,2.08-4.02
		c0.79-1.36,1.59-2.65,2.43-3.85c1.5-0.13,3.02-0.2,4.55-0.2c1.52,0,3.04,0.07,4.53,0.19c0.84,1.2,1.65,2.48,2.44,3.83
		c0.77,1.32,1.46,2.66,2.09,4.01c-0.63,1.35-1.33,2.7-2.08,4.02c-0.79,1.36-1.59,2.65-2.43,3.85c-1.5,0.13-3.02,0.2-4.55,0.2
		c-1.52,0-3.04-0.07-4.53-0.19c-0.84-1.2-1.65-2.48-2.44-3.83C17.97,25.72,17.27,24.38,16.64,23.04z M34.63,28.13
		c0.46-0.81,0.9-1.62,1.31-2.43c0.54,1.35,1.01,2.7,1.39,4.01c-1.32,0.32-2.71,0.59-4.15,0.81C33.67,29.74,34.16,28.95,34.63,28.13z
		 M34.62,17.85c-0.46-0.81-0.96-1.59-1.45-2.36c1.43,0.21,2.81,0.47,4.13,0.8c-0.37,1.3-0.84,2.64-1.36,3.98
		C35.52,19.46,35.09,18.65,34.62,17.85z M28.47,12.78c-0.91-0.04-1.83-0.07-2.77-0.07c-0.95,0-1.88,0.02-2.8,0.07
		c0.91-1.18,1.84-2.26,2.77-3.22C26.61,10.53,27.55,11.6,28.47,12.78z M14.46,3.56c0.3-0.18,0.69-0.26,1.16-0.26V3.29
		c2.08,0,5.18,1.66,8.46,4.69c-1.41,1.48-2.82,3.16-4.16,5.03c-2.28,0.24-4.43,0.61-6.41,1.11c-0.23-1.01-0.4-1.98-0.52-2.92
		C12.52,7.34,13.11,4.35,14.46,3.56z M11.93,29.13c-1-0.31-1.94-0.65-2.82-1.03c-3.57-1.52-5.87-3.51-5.87-5.1s2.31-3.59,5.87-5.1
		c0.87-0.37,1.81-0.7,2.79-1.02c0.57,1.97,1.33,4.03,2.27,6.13C13.24,25.12,12.49,27.16,11.93,29.13z M15.66,42.76
		c-0.45-0.01-0.84-0.1-1.14-0.27c-1.37-0.79-1.96-3.78-1.5-7.62c0.11-0.95,0.29-1.94,0.51-2.96c1.97,0.48,4.13,0.86,6.4,1.1
		c1.36,1.86,2.77,3.56,4.19,5.04C20.84,41.09,17.76,42.76,15.66,42.76z M25.72,36.45c-0.94-0.97-1.87-2.04-2.8-3.22
		c0.91,0.04,1.83,0.07,2.77,0.07c0.95,0,1.88-0.02,2.8-0.07C27.59,34.41,26.65,35.48,25.72,36.45z M36.94,42.45
		c-0.3,0.18-0.69,0.26-1.16,0.26c-2.08,0-5.18-1.66-8.46-4.69c1.41-1.48,2.82-3.16,4.16-5.03c2.28-0.24,4.43-0.61,6.41-1.11
		c0.23,1.02,0.41,1.99,0.52,2.93C38.89,38.67,38.3,41.66,36.94,42.45z M42.29,28.1c-0.87,0.37-1.81,0.7-2.79,1.02
		c-0.57-1.97-1.33-4.03-2.27-6.13c0.93-2.09,1.67-4.14,2.24-6.1c1,0.31,1.94,0.65,2.83,1.03c3.57,1.52,5.87,3.51,5.87,5.1
		C48.16,24.59,45.86,26.59,42.29,28.1z M21.09,23.01c0-2.54,2.06-4.6,4.6-4.6c2.54,0,4.6,2.06,4.6,4.6c0,2.54-2.06,4.6-4.6,4.6
		C23.15,27.61,21.09,25.55,21.09,23.01z"/>
	<g>
		<path class="st1" d="M60.86,29.69c1.67,1.86,4.41,3.61,7.98,3.61c4.52,0,5.97-2.43,5.97-4.37c0-3.04-3.08-3.88-6.42-4.79
			c-4.07-1.06-8.59-2.2-8.59-7.18c0-4.18,3.72-7.03,8.7-7.03c3.88,0,6.88,1.29,9,3.53l-1.9,2.32c-1.9-2.09-4.56-3.04-7.33-3.04
			c-3.04,0-5.21,1.63-5.21,4.03c0,2.55,2.93,3.31,6.15,4.18c4.14,1.1,8.85,2.39,8.85,7.71c0,3.69-2.51,7.45-9.35,7.45
			c-4.41,0-7.64-1.67-9.73-4.03L60.86,29.69z"/>
		<path class="st1" d="M82.79,10.31h3.15v15.43c0,4.64,2.51,7.56,7.18,7.56s7.18-2.93,7.18-7.56V10.31h3.15v15.46
			c0,6.31-3.46,10.33-10.33,10.33s-10.33-4.07-10.33-10.3V10.31z"/>
		<path class="st1" d="M112.54,15.21v20.44h-3.15V10.31h3.23l14.59,20.02V10.31h3.15v25.34h-3.04L112.54,15.21z"/>
		<path class="st1" d="M139.44,15.21v20.44h-3.15V10.31h3.23l14.59,20.02V10.31h3.15v25.34h-3.04L139.44,15.21z"/>
		<path class="st1" d="M170.56,24.94l-9.99-14.63h3.69l7.86,11.78l7.87-11.78h3.69l-9.95,14.63v10.71h-3.15V24.94z"/>
		<path class="st1" d="M196.78,10.31h8.66c7.86,0,12.99,5.51,12.99,12.69c0,7.22-5.13,12.65-12.99,12.65h-8.66V10.31z M205.44,32.84
			c6.15,0,9.73-4.41,9.73-9.84c0-5.47-3.46-9.88-9.73-9.88h-5.51v19.72H205.44z"/>
		<path class="st1" d="M223.37,10.31h16.6v2.81h-13.45v8.17h13.18v2.81h-13.18v8.74h13.45v2.81h-16.6V10.31z"/>
		<path class="st1" d="M245.34,29.69c1.67,1.86,4.41,3.61,7.98,3.61c4.52,0,5.97-2.43,5.97-4.37c0-3.04-3.08-3.88-6.42-4.79
			c-4.07-1.06-8.59-2.2-8.59-7.18c0-4.18,3.72-7.03,8.7-7.03c3.88,0,6.88,1.29,9.01,3.53l-1.9,2.32c-1.9-2.09-4.56-3.04-7.33-3.04
			c-3.04,0-5.21,1.63-5.21,4.03c0,2.55,2.93,3.31,6.15,4.18c4.14,1.1,8.85,2.39,8.85,7.71c0,3.69-2.51,7.45-9.35,7.45
			c-4.41,0-7.64-1.67-9.73-4.03L245.34,29.69z"/>
		<path class="st1" d="M267.26,10.31h3.15v25.34h-3.15V10.31z"/>
		<path class="st1" d="M288.35,9.89c4.48,0,7.6,1.98,9.84,4.75l-2.51,1.56c-1.6-2.05-4.29-3.5-7.33-3.5c-5.55,0-9.76,4.26-9.76,10.3
			c0,6,4.22,10.33,9.76,10.33c3.04,0,5.55-1.48,6.8-2.74v-5.17h-8.7v-2.81h11.85v9.16c-2.36,2.62-5.81,4.37-9.95,4.37
			c-7.22,0-13.03-5.28-13.03-13.15C275.32,15.13,281.13,9.89,288.35,9.89z"/>
		<path class="st1" d="M306.59,15.21v20.44h-3.15V10.31h3.23l14.59,20.02V10.31h3.15v25.34h-3.04L306.59,15.21z"/>
		<path class="st1" d="M330.68,29.69c1.67,1.86,4.41,3.61,7.98,3.61c4.52,0,5.97-2.43,5.97-4.37c0-3.04-3.08-3.88-6.42-4.79
			c-4.07-1.06-8.59-2.2-8.59-7.18c0-4.18,3.72-7.03,8.7-7.03c3.88,0,6.88,1.29,9,3.53l-1.9,2.32c-1.9-2.09-4.56-3.04-7.33-3.04
			c-3.04,0-5.21,1.63-5.21,4.03c0,2.55,2.93,3.31,6.15,4.18c4.14,1.1,8.85,2.39,8.85,7.71c0,3.69-2.51,7.45-9.35,7.45
			c-4.41,0-7.64-1.67-9.73-4.03L330.68,29.69z"/>
	</g>
</g>
</svg>
